<svg width="65" height="61" viewBox="0 0 65 61" fill="none" xmlns="http://www.w3.org/2000/svg">
<path opacity="0.5" d="M64.067 0.410504L48.388 55.9541C48.3082 56.2062 47.9893 56.2819 47.8033 56.1054L37.3064 46.1464L45.1724 18.3115C45.2522 18.0594 45.013 17.8325 44.7472 17.9081L15.4089 25.3711L4.96507 15.4625C4.77905 15.286 4.85878 14.9834 5.12452 14.9078L63.6418 0.00710022C63.9075 -0.0433252 64.1467 0.183589 64.067 0.410504Z" fill="#00B37E"/>
<path opacity="0.5" d="M37.3058 46.1459L33.2665 60.5171C33.1868 60.7693 32.8679 60.8449 32.6818 60.6684L0.101381 29.7828C-0.0846408 29.6063 -0.00491742 29.3038 0.260829 29.2282L15.4084 25.3706L37.3058 46.1459Z" fill="#00B37E"/>
<g filter="url(#filter0_d_1_22)">
<path d="M45.1711 18.311L37.305 46.1459L15.4076 25.3706L44.7459 17.9076C45.0117 17.832 45.2508 18.0589 45.1711 18.311Z" fill="#00B37E"/>
<path d="M16.4092 25.6317L44.61 18.4581L37.0489 45.2137L16.4092 25.6317Z" stroke="black"/>
</g>
<defs>
<filter id="filter0_d_1_22" x="11.4076" y="17.8929" width="37.7791" height="36.253" filterUnits="userSpaceOnUse" color-interpolation-filters="sRGB">
<feFlood flood-opacity="0" result="BackgroundImageFix"/>
<feColorMatrix in="SourceAlpha" type="matrix" values="0 0 0 0 0 0 0 0 0 0 0 0 0 0 0 0 0 0 127 0" result="hardAlpha"/>
<feOffset dy="4"/>
<feGaussianBlur stdDeviation="2"/>
<feComposite in2="hardAlpha" operator="out"/>
<feColorMatrix type="matrix" values="0 0 0 0 0 0 0 0 0 0 0 0 0 0 0 0 0 0 0.25 0"/>
<feBlend mode="normal" in2="BackgroundImageFix" result="effect1_dropShadow_1_22"/>
<feBlend mode="normal" in="SourceGraphic" in2="effect1_dropShadow_1_22" result="shape"/>
</filter>
</defs>
</svg>
